<svg width="66" height="66" viewBox="0 0 66 66" fill="none" xmlns="http://www.w3.org/2000/svg">
	<rect width="66" height="66" fill="black" fill-opacity="0"/>
	<path d="M1.48973 60.5134L8.38949 57.8928C10.5439 57.075 12.9226 57.075 15.077 57.8928L18.2414 59.0946C20.8984 60.1057 23.8336 60.1057 26.4907 59.0946L29.6562 57.8928C31.8104 57.0744 34.1893 57.0744 36.3437 57.8928L39.5092 59.0946C42.1663 60.1057 45.1015 60.1057 47.7585 59.0946L50.9229 57.8928C53.0773 57.075 55.456 57.075 57.6104 57.8928L64.5101 60.5134C65.0784 60.7287 65.7134 60.442 65.9285 59.8729C66.1435 59.3037 65.8572 58.6679 65.2889 58.4524L58.3903 55.833C55.7329 54.8235 52.7985 54.8235 50.141 55.833L46.9766 57.0348C44.8224 57.8532 42.4435 57.8532 40.2892 57.0348L37.1236 55.833C34.4662 54.8235 31.5318 54.8235 28.8743 55.833L25.7088 57.0348C23.5545 57.8532 21.1757 57.8532 19.0213 57.0348L15.8569 55.833C13.2001 54.8241 10.2666 54.8241 7.60981 55.833L0.711069 58.4524C0.142769 58.6677 -0.143507 59.3037 0.0714901 59.8729C0.286488 60.442 0.921555 60.7288 1.48973 60.5134Z" fill="#D9D9D9"/>
	<path d="M64.895 63.7904C63.4468 63.732 62.028 63.3619 60.7352 62.7055C60.2953 62.5028 59.8695 62.2649 59.4427 62.0269C58.7333 61.6061 57.9893 61.2468 57.2188 60.9529L57.1528 60.9276C57.0233 60.878 56.8906 60.8367 56.7557 60.8042L56.6676 60.7799C56.6073 60.7589 56.5456 60.7424 56.4828 60.7304C54.3305 60.2243 52.0693 60.4873 50.0901 61.4739L46.9081 63.0161C44.8533 64.0433 42.4359 64.0433 40.3812 63.0161L37.2156 61.4739C34.5555 60.1399 31.4231 60.1399 28.7628 61.4739L25.5808 63.0161C23.5261 64.0433 21.1086 64.0433 19.0539 63.0161L15.8818 61.4739C13.8982 60.5086 11.6459 60.2476 9.49464 60.7337C8.46773 61.0248 7.4858 61.4563 6.57658 62.0159C6.14426 62.256 5.71208 62.4973 5.25669 62.7021C3.96451 63.3575 2.54731 63.7285 1.1002 63.7904C0.492716 63.7904 0.000335693 64.2835 0.000335693 64.8919C0.000335693 65.5003 0.492716 65.9934 1.1002 65.9934C2.86504 65.9346 4.59636 65.4955 6.17623 64.7058C6.67673 64.4778 7.15957 64.2101 7.64344 63.9413C8.38214 63.4851 9.17756 63.1285 10.0093 62.8805C11.6692 62.5094 13.4058 62.7137 14.9347 63.46L18.1024 65.0021C20.7627 66.3322 23.8926 66.3322 26.553 65.0021L29.7351 63.46C31.7892 62.43 34.2079 62.43 36.262 63.46L39.4285 65.0021C42.0892 66.3326 45.2197 66.3326 47.8802 65.0021L51.0644 63.46C52.6083 62.6937 54.3724 62.4964 56.047 62.9026L56.3869 62.9973C57.0796 63.2536 57.7467 63.574 58.3799 63.9545C58.855 64.2189 59.3313 64.4832 59.8218 64.709C61.4002 65.4992 63.1308 65.9374 64.8946 65.9934C65.5021 65.9934 65.9945 65.5003 65.9945 64.8919C65.9945 64.2835 65.5025 63.7904 64.895 63.7904Z" fill="#D9D9D9"/>
	<path d="M27.0065 13.1085C27.2675 13.2392 27.5698 13.2607 27.8466 13.1681C28.1235 13.0756 28.3523 12.8766 28.4826 12.615L29.5825 10.4119C29.8541 9.86744 29.6334 9.20562 29.0897 8.93364C28.546 8.66166 27.8852 8.88265 27.6136 9.42713L26.5137 11.6302C26.3832 11.8916 26.3618 12.1943 26.4542 12.4716C26.5467 12.7489 26.7454 12.978 27.0065 13.1085Z" fill="#D9D9D9"/>
	<path d="M17.554 29.7414H21.022C22.3221 34.2091 24.5483 37.7967 27.3465 39.8478C25.7808 43.6112 24.7262 47.5678 24.2106 51.612C24.1364 52.1215 24.4245 52.6146 24.9043 52.7993C25.3842 52.984 25.9279 52.8112 26.2135 52.3831C26.2322 52.3545 28.1427 49.5687 32.9978 49.5687C37.7858 49.5687 39.7072 52.2751 39.7821 52.3831C40.0677 52.8113 40.6114 52.9841 41.0913 52.7993C41.5712 52.6146 41.8592 52.1215 41.785 51.612C41.2775 47.5755 40.2148 43.6289 38.6272 39.8842C41.4463 37.7989 43.6736 34.2091 44.9736 29.7414H48.4417C49.1929 29.7419 49.8889 29.3458 50.273 28.6993C50.6823 28.0283 50.7078 27.1909 50.3402 26.4962L46.0978 18.3681C45.4379 8.80481 41.1801 1.44997 35.4618 0.0322424C35.0115 -0.0791573 34.5399 0.104013 34.2826 0.490491L32.9979 2.42366L31.7132 0.490491C31.456 0.104142 30.9843 -0.0791573 30.5341 0.0322424C24.8057 1.45217 20.5524 8.80584 19.8991 18.3659L15.6556 26.4995C15.288 27.1943 15.3134 28.0316 15.7227 28.7026C16.1076 29.3479 16.8034 29.7425 17.554 29.7414ZM21.9503 19.1921L21.9581 19.1712C21.9668 19.1525 21.9712 19.1326 21.9789 19.1139C22.0213 19.0142 22.0487 18.9087 22.0603 18.8011C22.0603 18.7834 22.0724 18.768 22.0734 18.7493C22.5739 10.6091 25.9231 4.05619 30.3381 2.39616L32.0825 5.01773C32.2983 5.30662 32.6374 5.47676 32.9977 5.47676C33.3579 5.47676 33.6971 5.30662 33.9128 5.01773L35.6573 2.39719C39.5466 3.86114 42.612 9.14404 43.6261 15.9359C41.5871 16.5239 39.499 16.925 37.3875 17.1344C33.8039 17.5663 30.1718 17.3364 26.6711 16.4558C26.2919 16.3407 25.8802 16.4387 25.5934 16.7125C25.3066 16.9863 25.1889 17.3933 25.2854 17.7782C25.3819 18.1632 25.6776 18.4662 26.0595 18.5718C28.544 19.2398 31.1086 19.5609 33.6807 19.5258C34.9566 19.5258 36.2743 19.4597 37.6085 19.3253C39.7276 19.1145 41.8248 18.7243 43.878 18.1588C43.8911 18.3372 43.9122 18.5123 43.9231 18.693C43.9249 18.8668 43.9675 19.0378 44.0474 19.1921L48.4469 27.5383H41.7969C41.1894 27.5383 40.697 28.0314 40.697 28.6398C40.697 29.2481 41.1894 29.7412 41.7969 29.7412H42.6768C41.7771 33.0113 39.9069 35.9307 37.3136 38.1127C36.5065 38.7255 36.2268 39.8141 36.6383 40.741C37.7547 43.3742 38.5795 46.122 39.0978 48.9352C37.2459 47.8634 35.1361 47.3204 32.9977 47.3655C30.8593 47.3202 28.7493 47.863 26.8976 48.9352C27.4146 46.1211 28.2398 43.3728 29.3581 40.7399C29.7672 39.8117 29.4848 38.7238 28.6761 38.1127C26.0849 35.9299 24.2166 33.0107 23.3184 29.7412H24.1984C24.8059 29.7412 25.2982 29.2481 25.2982 28.6398C25.2982 28.0314 24.8059 27.5383 24.1984 27.5383L17.6055 27.5196L21.9503 19.1921Z" fill="#D9D9D9"/>
	<path d="M33.8918 37.4621C34.2861 37.5304 34.6863 37.3789 34.9369 37.0665C35.1645 36.798 35.423 36.5574 35.7068 36.3494C37.3748 35.0141 38.6784 33.2779 39.4959 31.3023C39.6181 31.0362 39.6296 30.7323 39.5276 30.4578C39.4257 30.1832 39.2188 29.9608 38.9526 29.8393C38.6865 29.7184 38.3833 29.7084 38.1098 29.8118C37.8364 29.9151 37.6152 30.1232 37.4952 30.3901C36.8346 32.0194 35.7756 33.4562 34.4155 34.5682C33.9894 34.8787 33.6017 35.2388 33.2606 35.641C32.9934 35.9393 32.909 36.3594 33.0402 36.7379C33.1714 37.1166 33.4975 37.3939 33.8918 37.4621Z" fill="#D9D9D9"/>
</svg>
