<svg width="49" height="37" viewBox="0 0 49 37" fill="none" xmlns="http://www.w3.org/2000/svg">
	<path d="M47.9706 18.7811C43.9647 11.5211 37.3791 7.0816 29.6603 6.25891C25.7904 1.31044 13.6475 0.0568164 13.1234 0.00517273C12.7819 -0.0304928 12.4384 0.120063 12.229 0.401488C12.0185 0.680916 11.9667 1.05136 12.092 1.37929C13.2825 4.50797 14.5021 8.06663 14.8249 9.52255C12.6198 10.5441 10.6925 11.6304 9.4499 12.5357C6.75492 8.17058 1.25355 8.11609 1.00207 8.11609C0.448193 8.11609 0 8.56985 0 9.13061C0 15.0085 2.02368 17.9588 3.37699 19.2755C2.02368 20.5921 0 23.5424 0 29.4203C0 29.9811 0.448193 30.4348 1.00207 30.4348C1.25355 30.4348 6.75502 30.3803 9.4499 26.0152C11.1007 27.218 13.955 28.7389 17.0741 30.0032C16.3848 31.1319 16.0326 32.927 16.0326 35.5072C16.0326 36.068 16.4808 36.5217 17.0347 36.5217C17.3327 36.5217 24.1468 36.4619 27.5403 32.4318C36.1707 32.263 43.6022 27.6868 47.9706 19.7698C48.1399 19.4627 48.1399 19.0882 47.9706 18.7811ZM14.552 2.22737C17.919 2.72079 23.4465 3.93475 26.5703 6.10769C23.69 6.22163 20.0151 7.32412 16.6836 8.70756C16.2401 6.92429 15.2558 4.13829 14.552 2.22737ZM18.0602 34.4343C18.1936 31.6124 18.8368 30.8911 19.017 30.7435C20.9697 31.4375 22.9481 31.9889 24.7445 32.2657C22.5708 33.8141 19.6076 34.296 18.0602 34.4343ZM18.9007 30.7063L18.9011 30.7035C18.9038 30.7045 18.9067 30.7052 18.9093 30.7063C18.9037 30.7055 18.9068 30.7071 18.9007 30.7063ZM27.055 30.4348C21.1994 30.4348 11.6252 25.5675 9.85206 23.7307C9.66221 23.5335 9.40293 23.4255 9.13576 23.4255C9.07508 23.4255 9.01345 23.4315 8.95277 23.4424C8.62491 23.5038 8.34797 23.7277 8.21589 24.0378C6.86352 27.2129 3.68324 28.0798 2.03044 28.3167C2.34355 21.9593 5.31546 20.2603 5.46812 20.178C5.79785 20.0066 6.00142 19.6608 6.00631 19.2854C6.01119 18.9059 5.80076 18.5523 5.46906 18.374C5.335 18.3017 2.34552 16.6145 2.03044 10.2402C3.68221 10.4849 6.87423 11.3647 8.21589 14.5132C8.34797 14.8232 8.62491 15.0472 8.95277 15.1085C9.28353 15.1709 9.61918 15.0619 9.85206 14.8203C11.6252 12.9834 21.1994 8.11609 27.055 8.11609C34.9666 8.11609 41.8194 12.175 45.9411 19.2754C41.8194 26.3759 34.9666 30.4348 27.055 30.4348Z" fill="black"/>
	<path d="M2.00404 9.12889C2.00404 4.4607 3.82321 1.60146 3.84181 1.57274C4.14515 1.10509 4.01795 0.476999 3.55802 0.167898C3.09808 -0.139206 2.47769 -0.0133785 2.17239 0.450274C2.08333 0.585042 0 3.81073 0 9.12889C0 14.447 2.08333 17.6727 2.17239 17.8075C2.36515 18.1007 2.68324 18.2593 3.00705 18.2593C3.19785 18.2593 3.39061 18.2038 3.56187 18.0888C4.02274 17.7777 4.14703 17.1487 3.83974 16.682C3.82124 16.6544 2.00404 13.8398 2.00404 9.12889Z" transform="translate(28.8131 10.1465)" fill="black"/>
	<path d="M3.55802 0.167898C3.09714 -0.139206 2.47863 -0.0133775 2.17239 0.450275C2.08333 0.584948 0 3.81073 0 9.12879C0 11.9692 0.604698 14.2012 1.11264 15.5733C1.26332 15.9805 1.645 16.2321 2.05111 16.2321C2.1676 16.2321 2.2869 16.2113 2.40245 16.1677C2.9211 15.9715 3.18338 15.3871 2.98958 14.862C2.54045 13.6464 2.00414 11.6649 2.00414 9.12879C2.00414 4.4606 3.82331 1.60137 3.84191 1.57264C4.14515 1.10509 4.01795 0.476999 3.55802 0.167898Z" transform="translate(24.8049 10.1466)" fill="black"/>
	<path d="M2.00404 4.05788C3.11085 4.05788 4.00809 3.14949 4.00809 2.02894C4.00809 0.908387 3.11085 0 2.00404 0C0.897242 0 0 0.908387 0 2.02894C0 3.14949 0.897242 4.05788 2.00404 4.05788Z" transform="translate(34.8253 14.2029)" fill="black"/>
</svg>
