<svg width="59" height="55" viewBox="0 0 59 55" fill="none" xmlns="http://www.w3.org/2000/svg">
	<rect width="69" height="59" fill="black" fill-opacity="0"/>
	<path d="M31.2502 38.4803C31.5983 39.0184 31.5983 39.704 31.2502 40.2417L29.4021 43.0989C29.0814 43.595 28.5344 43.8664 27.9754 43.8664C27.6672 43.8664 27.3556 43.784 27.0759 43.6111C26.2888 43.1248 26.0541 42.1068 26.5518 41.3375L27.8304 39.361L24.9713 34.9418C24.4735 34.1726 24.7082 33.1546 25.4953 32.6681C26.2824 32.1817 27.3239 32.4111 27.8215 33.1801L31.2502 38.4803ZM54.7982 18.9855C52.7231 16.2803 52.6143 12.1746 54.6645 8.69364C56.99 4.74531 61.4222 2.74066 65.2037 3.92757C65.431 3.99892 65.6402 4.11659 65.8176 4.27299C68.7668 6.87291 69.2194 11.6258 66.8939 15.5743C64.8437 19.0549 61.156 21.0245 57.721 20.6299L56.5371 22.6399C56.2252 23.1695 55.6576 23.466 55.0742 23.466C54.7888 23.466 54.4998 23.395 54.2346 23.246C53.4276 22.7918 53.1499 21.7844 53.6146 20.9955L54.7982 18.9855ZM56.7907 15.6026L59.3914 11.1868C59.7033 10.6571 60.2709 10.3606 60.8543 10.3606C61.1398 10.3606 61.4288 10.4316 61.694 10.5806C62.501 11.0348 62.7787 12.0423 62.314 12.8312L59.7133 17.2469C61.3419 16.8581 62.9542 15.6565 63.9711 13.9297C65.4055 11.4945 65.3207 8.5824 63.8187 6.97311C61.6405 6.51199 59.0213 7.90276 57.5871 10.338C56.5702 12.0647 56.3168 14.0309 56.7907 15.6026ZM37.4903 18.0195C35.1646 14.0708 35.6173 9.31791 38.5665 6.71816C38.7437 6.56193 38.953 6.44426 39.1803 6.37273C42.9618 5.18616 47.3939 7.19048 49.7194 11.1386C51.7694 14.6193 51.6605 18.7255 49.5859 21.4305L50.7697 23.4403C51.2343 24.2292 50.9567 25.2366 50.1497 25.6908C49.8847 25.8398 49.5953 25.9109 49.31 25.9109C48.7266 25.9109 48.1593 25.6144 47.8472 25.0847L46.6633 23.0749C43.2273 23.4703 39.5403 21.5003 37.4903 18.0195ZM40.4128 16.3749C41.4297 18.1015 43.0422 19.3031 44.6707 19.692L42.07 15.2763C41.6054 14.4876 41.883 13.48 42.69 13.0258C43.4971 12.5721 44.5278 12.8434 44.9925 13.6319L47.5932 18.0476C48.0672 16.4759 47.8138 14.5097 46.7967 12.7832C45.3625 10.3479 42.7426 8.95584 40.5651 9.41844C39.0629 11.0272 38.9783 13.9395 40.4128 16.3749ZM69 48.0413C69 48.9514 68.2451 49.6893 67.3139 49.6893H61.9231C61.9039 49.6897 61.8845 49.6897 61.8655 49.6893H54.3828L49.1129 58.205C48.8074 58.6984 48.2603 59 47.6701 59H21.3299C20.7397 59 20.1926 58.6984 19.8871 58.205L14.6172 49.6893H1.68613C0.754881 49.6893 0 48.9514 0 48.0413C0 47.1313 0.754881 46.3933 1.68613 46.3933H7.31814C6.6764 45.5011 6.11897 44.5707 5.65107 43.6114C5.6224 43.5595 5.5966 43.5056 5.57367 43.4506C4.99887 42.2419 4.56554 40.9884 4.28395 39.7073C4.23387 39.479 4.23387 39.2432 4.28395 39.0149C6.42803 29.2608 16.8746 22.1811 29.1237 22.1811C37.4898 22.1812 45.2294 25.5196 49.9063 31.0205C52.986 27.3923 57.4165 24.6694 62.6138 23.2501C63.1866 23.0936 63.8015 23.2437 64.2318 23.6452C64.6621 24.0468 64.844 24.6399 64.7107 25.2067C63.6605 29.6693 62.9242 34.4311 62.5219 39.3612C62.7158 41.7386 62.9903 44.0976 63.3398 46.3935H67.3139C68.2451 46.3933 69 47.1311 69 48.0413ZM50.4416 49.6893H18.5584L22.2805 55.704H46.7193L50.4416 49.6893ZM59.1495 39.232C59.4789 35.134 60.0325 31.1443 60.7995 27.3328C56.7653 28.9393 53.4571 31.4919 51.3181 34.6907C51.0066 35.1564 50.4758 35.4371 49.9066 35.4371C49.3374 35.4371 48.8066 35.1564 48.4951 34.6907C44.6953 29.0077 37.2726 25.4773 29.1235 25.4771C18.6031 25.4771 9.64821 31.2943 7.66144 39.3607C7.81387 39.9764 8.00996 40.585 8.24804 41.1829H12.0643C12.9955 41.1829 13.7504 41.9209 13.7504 42.8309C13.7504 43.741 12.9955 44.479 12.0643 44.479H10.0635C10.5393 45.1424 11.0718 45.7822 11.6582 46.3933H46.5886C47.3044 45.6477 47.9441 44.8554 48.4955 44.0312C48.8069 43.5656 49.3377 43.2851 49.9068 43.2851C49.9068 43.2851 49.9068 43.2851 49.9069 43.2851C50.476 43.2851 51.0068 43.5659 51.3182 44.0315C51.8686 44.8547 52.5081 45.6469 53.2246 46.3933H59.9315C59.5988 44.1339 59.3366 41.8199 59.1495 39.4901C59.1425 39.4042 59.1425 39.3178 59.1495 39.232ZM15.421 35.1785H15.0502C14.119 35.1785 13.3641 35.9165 13.3641 36.8265C13.3641 37.7366 14.119 38.4745 15.0502 38.4745H15.421C16.3523 38.4745 17.1071 37.7366 17.1071 36.8265C17.1071 35.9165 16.3523 35.1785 15.421 35.1785ZM6.25419 11.27H25.3854C25.9455 11.27 26.4188 11.7326 26.4188 12.2799C26.4188 12.8274 25.9455 13.29 25.3854 13.29H14.5557C12.1265 13.29 10.1502 15.2216 10.1502 17.5959V20.254C10.1502 21.1641 10.905 21.902 11.8363 21.902C12.7675 21.902 13.5224 21.1641 13.5224 20.254V17.5959C13.5224 17.0486 13.9956 16.586 14.5557 16.586H25.3854C27.8147 16.586 29.7911 14.6542 29.7911 12.2799C29.7911 9.9056 27.8147 7.97395 25.3854 7.97395H6.25419C5.69406 7.97395 5.22093 7.51135 5.22093 6.96388C5.22093 6.41657 5.69423 5.95397 6.25419 5.95397H18.132C20.5612 5.95397 22.5373 4.02233 22.5373 1.64802C22.5373 0.737984 21.7824 0 20.8512 0C19.9199 0 19.1651 0.737984 19.1651 1.64802C19.1651 2.19533 18.6919 2.65793 18.132 2.65793H6.25419C3.82499 2.65793 1.84867 4.58957 1.84867 6.96388C1.84867 9.33818 3.82499 11.27 6.25419 11.27ZM35.4914 33.1803C34.9936 32.4113 33.9523 32.1817 33.165 32.6682C32.3781 33.1547 32.1434 34.1727 32.6411 34.942L35.5003 39.3612L34.2217 41.3375C33.724 42.1068 33.9587 43.1249 34.7458 43.6113C35.0255 43.7841 35.3371 43.8665 35.6453 43.8665C36.2043 43.8665 36.7512 43.5951 37.0719 43.0992L38.9203 40.2421C39.2683 39.704 39.2683 39.0184 38.9203 38.4805L35.4914 33.1803Z" fill="#D9D9D9"/>
</svg>
