<svg width="62" height="62" viewBox="0 0 39 39" fill="none" xmlns="http://www.w3.org/2000/svg">
	<path d="M12.0488 14.0305V17.439L15.8537 15.2988C17.2276 15.6159 18.5224 15.7744 19.7378 15.7744C22.1687 15.7744 24.5864 15.312 26.9909 14.3872C29.3953 13.4624 31.2185 12.5244 32.4604 11.5732C33.7023 10.622 34.3232 9.96141 34.3232 9.59146C34.3232 9.32726 33.8476 8.81202 32.8963 8.04573C31.9451 7.27945 30.5315 6.44713 28.6555 5.54878C26.7794 4.65043 24.8374 4.04268 22.8293 3.72561L15.4573 0V4.04268C12.2866 4.94103 9.38005 6.36786 6.7378 8.32317L0.713415 4.04268C0.502006 3.88415 0.330311 3.84451 0.198171 3.92378C0.0660305 4.00305 0 4.14835 0 4.35976C0.158537 4.62396 0.34347 4.95427 0.554878 5.35061C0.766287 5.74695 1.03049 6.42073 1.34756 7.37195C1.66463 8.32317 1.82317 9.10262 1.82317 9.71037C1.82317 10.3181 1.67787 11.0579 1.3872 11.9299C1.09652 12.8018 0.792683 13.502 0.47561 14.0305L0 14.9024C0 15.1138 0.0792683 15.2591 0.237805 15.3384C0.396341 15.4177 0.554878 15.378 0.713415 15.2195L6.7378 10.939C6.94921 11.0976 8.71951 12.128 12.0488 14.0305ZM26.5945 7.72866C26.938 7.38519 27.3476 7.21341 27.8232 7.21341C28.2988 7.21341 28.7084 7.38519 29.0518 7.72866C29.3953 8.07213 29.5671 8.48171 29.5671 8.95732C29.5671 9.43293 29.3953 9.84251 29.0518 10.186C28.7084 10.5294 28.2988 10.7012 27.8232 10.7012C27.3476 10.7012 26.938 10.5294 26.5945 10.186C26.251 9.84251 26.0793 9.43293 26.0793 8.95732C26.0793 8.48171 26.251 8.07213 26.5945 7.72866Z" fill="#010002"/>
	<path d="M32.936 7.41159C33.2267 6.53963 33.5305 5.81298 33.8476 5.23171L34.3232 4.35976C34.3232 4.09555 34.2571 3.92378 34.125 3.84451C33.9923 3.76524 33.8205 3.80488 33.6098 3.96341L27.5854 8.2439C24.9431 6.28859 22.063 4.88824 18.9451 4.04268V0L11.5732 3.72561C9.56507 4.04268 7.60976 4.6372 5.70732 5.50915C3.80488 6.3811 2.37805 7.20018 1.42683 7.96646C0.47561 8.73275 0 9.27439 0 9.59146C0 9.96141 0.620909 10.6087 1.8628 11.5335C3.1047 12.4584 4.92787 13.3831 7.33232 14.3079C9.73676 15.2327 12.1809 15.6951 14.6646 15.6951C15.8801 15.6951 17.1483 15.5366 18.4695 15.2195L22.3537 17.439V13.9512C25.6301 12.1017 27.374 11.0712 27.5854 10.8598L33.6098 15.2195C33.7683 15.3252 33.9268 15.3384 34.0854 15.2591C34.2439 15.1799 34.3232 15.0346 34.3232 14.8232C33.1077 12.7622 32.5 11.0447 32.5 9.67073C32.5 9.03658 32.6453 8.28354 32.936 7.41159ZM8.91768 8.99695C8.57421 9.34042 8.16463 9.51219 7.68902 9.51219C7.21341 9.51219 6.80384 9.34042 6.46037 8.99695C6.1169 8.65348 5.94512 8.2439 5.94512 7.76829C5.94512 7.29268 6.1169 6.8831 6.46037 6.53963C6.80384 6.19616 7.21341 6.02439 7.68902 6.02439C8.16463 6.02439 8.57421 6.19616 8.91768 6.53963C9.26115 6.8831 9.43293 7.29268 9.43293 7.76829C9.43293 8.2439 9.26115 8.65348 8.91768 8.99695Z" transform="translate(4.67676 21.561)" fill="#010002"/>
</svg>
