<svg width="58" height="44" viewBox="0 0 58 44" fill="none" xmlns="http://www.w3.org/2000/svg">
	<rect width="58" height="44" fill="black" fill-opacity="0"/>
	<path d="M57.8469 22.6268C53.0162 13.8801 45.0748 8.53164 35.7668 7.5405C31.1002 1.57876 16.4572 0.0684503 15.8252 0.0062319C15.4135 -0.0367366 14.9992 0.144648 14.7467 0.483698C14.4929 0.820341 14.4304 1.26664 14.5815 1.66172C16.0171 5.43103 17.4879 9.71837 17.8771 11.4724C15.2181 12.7031 12.8938 14.0119 11.3955 15.1025C8.14564 9.84361 1.51163 9.77795 1.20838 9.77795C0.540468 9.77795 0 10.3246 0 11.0002C0 18.0816 2.44032 21.6361 4.07225 23.2224C2.44032 24.8086 0 28.363 0 35.4445C0 36.12 0.540468 36.6667 1.20838 36.6667C1.51163 36.6667 8.14575 36.6011 11.3955 31.3422C13.3862 32.7912 16.8281 34.6235 20.5893 36.1467C19.7582 37.5065 19.3335 39.6692 19.3335 42.7777C19.3335 43.4533 19.8739 44 20.5418 44C20.9012 44 29.1182 43.9279 33.2104 39.0726C43.6176 38.8692 52.5791 33.356 57.8469 23.8179C58.051 23.4479 58.051 22.9968 57.8469 22.6268ZM17.548 2.68345C21.6082 3.27791 28.2738 4.74044 32.0406 7.35831C28.5674 7.49558 24.1358 8.82382 20.1185 10.4905C19.5836 8.34212 18.3967 4.98565 17.548 2.68345ZM21.7784 41.4851C21.9394 38.0854 22.7149 37.2165 22.9323 37.0386C25.287 37.8746 27.6727 38.539 29.839 38.8724C27.2178 40.7379 23.6445 41.3185 21.7784 41.4851ZM22.7921 36.9937L22.7925 36.9904C22.7958 36.9916 22.7992 36.9925 22.8024 36.9937C22.7956 36.9928 22.7993 36.9948 22.7921 36.9937ZM32.6252 36.6667C25.564 36.6667 14.0186 30.8027 11.8804 28.5898C11.6515 28.3523 11.3388 28.2222 11.0167 28.2222C10.9435 28.2222 10.8692 28.2294 10.796 28.2425C10.4006 28.3165 10.0667 28.5862 9.9074 28.9598C8.2766 32.7851 4.44155 33.8295 2.44847 34.1148C2.82604 26.4557 6.40982 24.4088 6.59391 24.3097C6.99153 24.1032 7.23701 23.6866 7.2429 23.2343C7.24879 22.7771 6.99504 22.3511 6.59504 22.1363C6.43339 22.0492 2.82842 20.0165 2.44847 12.337C4.44031 12.6319 8.28951 13.6917 9.9074 17.4849C10.0667 17.8584 10.4006 18.1283 10.796 18.2022C11.1948 18.2773 11.5996 18.146 11.8804 17.8549C14.0186 15.6419 25.564 9.77795 32.6252 9.77795C42.1656 9.77795 50.4293 14.668 55.3996 23.2223C50.4293 31.7767 42.1656 36.6667 32.6252 36.6667Z" fill="#D9D9D9"/>
	<path d="M36.2502 23.2223C36.2502 17.5982 38.4439 14.1535 38.4663 14.1189C38.8321 13.5555 38.6787 12.7988 38.1241 12.4264C37.5695 12.0564 36.8213 12.208 36.4532 12.7666C36.3458 12.929 33.8335 16.8152 33.8335 23.2223C33.8335 29.6294 36.3458 33.5156 36.4532 33.6779C36.6856 34.0312 37.0692 34.2222 37.4597 34.2222C37.6898 34.2222 37.9222 34.1554 38.1287 34.0169C38.6845 33.6421 38.8344 32.8842 38.4638 32.322C38.4415 32.2888 36.2502 28.8978 36.2502 23.2223Z" fill="#D9D9D9"/>
	<path d="M33.2907 12.4265C32.7349 12.0565 31.9891 12.2081 31.6198 12.7667C31.5124 12.929 29.0001 16.8153 29.0001 23.2223C29.0001 26.6443 29.7293 29.3333 30.3418 30.9864C30.5236 31.4769 30.9838 31.7801 31.4735 31.7801C31.614 31.7801 31.7579 31.755 31.8972 31.7025C32.5226 31.4661 32.8389 30.762 32.6052 30.1294C32.0636 28.6649 31.4169 26.2777 31.4169 23.2223C31.4169 17.5982 33.6106 14.1535 33.633 14.1189C33.9987 13.5556 33.8453 12.7989 33.2907 12.4265Z" fill="#D9D9D9"/>
	<path d="M43.5001 21.9999C44.8348 21.9999 45.9167 20.9055 45.9167 19.5555C45.9167 18.2055 44.8348 17.1111 43.5001 17.1111C42.1654 17.1111 41.0835 18.2055 41.0835 19.5555C41.0835 20.9055 42.1654 21.9999 43.5001 21.9999Z" fill="#D9D9D9"/>
</svg>
